<mxfile>
    <diagram id="8jtwp23gU4bW0mw1dv8f" name="v1.0">
        <mxGraphModel dx="-655" dy="383" grid="0" gridSize="10" guides="1" tooltips="1" connect="1" arrows="1" fold="1" page="1" pageScale="1" pageWidth="1169" pageHeight="1654" background="none" math="0" shadow="0">
            <root>
                <mxCell id="0"/>
                <mxCell id="1" parent="0"/>
                <mxCell id="276" value="" style="fontStyle=1;align=center;verticalAlign=top;childLayout=stackLayout;horizontal=1;horizontalStack=0;resizeParent=1;resizeParentMax=0;resizeLast=0;marginBottom=0;fontColor=#ffffff;shadow=1;rounded=1;arcSize=2;strokeWidth=1;sketch=0;fillColor=#1A1A1A;strokeColor=#B3B3B3;" parent="1" vertex="1">
                    <mxGeometry x="1434" y="123" width="160" height="77" as="geometry"/>
                </mxCell>
                <object label="&lt;b&gt;&lt;font style=&quot;font-size: 18px&quot; color=&quot;#e6e6e6&quot;&gt;users&lt;/font&gt;&lt;/b&gt;" info="Пользователь" id="277">
                    <mxCell style="html=1;align=center;spacingLeft=4;verticalAlign=middle;strokeColor=none;fillColor=none;" parent="276" vertex="1">
                        <mxGeometry width="160" height="25" as="geometry"/>
                    </mxCell>
                </object>
                <object label="&lt;b&gt;id : int&lt;/b&gt;" info="id пользователяid пользователя" id="ulDhrrkaClvxFThi6MSQ-304">
                    <mxCell style="html=1;align=left;spacingLeft=4;verticalAlign=top;strokeColor=#d79b00;fillColor=#ffcd28;gradientColor=#ffa500;fontColor=#000000;" parent="276" vertex="1">
                        <mxGeometry y="25" width="160" height="25" as="geometry"/>
                    </mxCell>
                </object>
                <object label="login : timestamp" info="дата последнего входа" id="Uek7lsJdRdBJGBdZfz5D-391">
                    <mxCell style="html=1;align=left;spacingLeft=4;verticalAlign=top;strokeColor=#B09500;fillColor=#e3c800;fontColor=#000000;rounded=0;" parent="276" vertex="1">
                        <mxGeometry y="50" width="160" height="27" as="geometry"/>
                    </mxCell>
                </object>
            </root>
        </mxGraphModel>
    </diagram>
    <diagram id="pNnec3i-BwWO0GpgnOVk" name="v0.1">
        <mxGraphModel dx="617" dy="459" grid="1" gridSize="10" guides="1" tooltips="1" connect="1" arrows="1" fold="1" page="1" pageScale="1" pageWidth="827" pageHeight="1169" math="0" shadow="0">
            <root>
                <mxCell id="l0KpE5C0nJ2xeMnK4a6e-0"/>
                <mxCell id="l0KpE5C0nJ2xeMnK4a6e-1" parent="l0KpE5C0nJ2xeMnK4a6e-0"/>
            </root>
        </mxGraphModel>
    </diagram>
</mxfile>
